<svg width="1600" height="900" viewBox="0 0 1600 900" fill="none" xmlns="http://www.w3.org/2000/svg">
  <rect width="1600" height="900" fill="#F5F5F5"/>
  <g clip-path="url(#clip0)">
    <path d="M1600 0H0V900H1600V0Z" fill="white"/>
    <path opacity="0.04" d="M1600 0H0V900H1600V0Z" fill="#4E2A84"/>

    <g opacity="0.16">
      <path d="M160 0V900" stroke="#4E2A84"/>
      <path d="M320 0V900" stroke="#4E2A84"/>
      <path d="M480 0V900" stroke="#4E2A84"/>
      <path d="M640 0V900" stroke="#4E2A84"/>
      <path d="M800 0V900" stroke="#4E2A84"/>
      <path d="M960 0V900" stroke="#4E2A84"/>
      <path d="M1120 0V900" stroke="#4E2A84"/>
      <path d="M1280 0V900" stroke="#4E2A84"/>
      <path d="M1440 0V900" stroke="#4E2A84"/>
      <path d="M0 150H1600" stroke="#4E2A84"/>
      <path d="M0 300H1600" stroke="#4E2A84"/>
      <path d="M0 450H1600" stroke="#4E2A84"/>
      <path d="M0 600H1600" stroke="#4E2A84"/>
      <path d="M0 750H1600" stroke="#4E2A84"/>
    </g>

    <path d="M0 0H412L202 900H0V0Z" fill="url(#purpleA)"/>
    <path opacity="0.92" d="M1336 0H1600V900H1138L1336 0Z" fill="#8F7CB5"/>
    <path d="M0 74L520 900H444L0 196V74Z" fill="#EDE8F5"/>
    <path d="M1600 86L1132 900H1058L1600 0V86Z" fill="#EDE8F5"/>

    <g filter="url(#shadow)">
      <path d="M504 164H1058C1074.57 164 1088 177.431 1088 194V696C1088 712.569 1074.57 726 1058 726H504C487.431 726 474 712.569 474 696V194C474 177.431 487.431 164 504 164Z" fill="#111113"/>
      <path d="M530 214H1032C1043.05 214 1052 222.954 1052 234V674C1052 685.046 1043.05 694 1032 694H530C518.954 694 510 685.046 510 674V234C510 222.954 518.954 214 530 214Z" fill="#F8F7FB"/>

      <path d="M574 306H1002" stroke="#D8CFE8" stroke-width="4" stroke-linecap="round"/>
      <path d="M574 396H1002" stroke="#D8CFE8" stroke-width="4" stroke-linecap="round"/>
      <path d="M574 486H1002" stroke="#D8CFE8" stroke-width="4" stroke-linecap="round"/>
      <path d="M574 576H1002" stroke="#D8CFE8" stroke-width="4" stroke-linecap="round"/>

      <path d="M622 614C622 536 672 498 730 464C790 429 846 398 856 316" stroke="#4E2A84" stroke-width="10" stroke-linecap="round" fill="none"/>
      <path d="M742 614C742 546 782 510 832 474C886 435 932 392 942 316" stroke="#8F7CB5" stroke-width="8" stroke-linecap="round" fill="none"/>
      <path d="M862 614C862 552 898 522 938 492C978 462 1004 414 1004 352" stroke="#B6ACD1" stroke-width="8" stroke-linecap="round" fill="none"/>

      <path d="M574 614H1014" stroke="#111113" stroke-width="5" stroke-linecap="round" opacity="0.68"/>
      <path d="M574 614V282" stroke="#111113" stroke-width="5" stroke-linecap="round" opacity="0.68"/>

      <circle cx="856" cy="316" r="22" fill="#4E2A84"/>
      <circle cx="942" cy="316" r="18" fill="#8F7CB5"/>
      <circle cx="1004" cy="352" r="18" fill="#B6ACD1"/>

      <g transform="translate(596 246)">
        <rect width="120" height="30" rx="15" fill="#4E2A84"/>
        <rect x="144" width="182" height="30" rx="15" fill="#8F7CB5"/>
        <rect x="350" width="102" height="30" rx="15" fill="#B6ACD1"/>
      </g>
    </g>

    <g opacity="0.78">
      <path d="M312 250C434 160 578 168 704 260" stroke="#4E2A84" stroke-width="5" fill="none"/>
      <path d="M884 168C1040 90 1214 124 1366 266" stroke="#4E2A84" stroke-width="5" fill="none"/>
      <path d="M332 720C488 790 662 778 820 692" stroke="#4E2A84" stroke-width="5" fill="none"/>
      <circle cx="360" cy="214" r="28" fill="#B6ACD1"/>
      <circle cx="498" cy="150" r="16" fill="#4E2A84"/>
      <circle cx="1282" cy="226" r="30" fill="#D8CFE8"/>
      <circle cx="1382" cy="320" r="17" fill="#4E2A84"/>
    </g>

    <g transform="translate(92 604)">
      <rect width="346" height="214" rx="4" fill="#4E2A84"/>
      <text x="42" y="72" fill="#FFFFFF" font-family="Poppins, Helvetica, Arial, sans-serif" font-size="39" font-weight="700">LEARN</text>
      <text x="42" y="122" fill="#FFFFFF" font-family="Poppins, Helvetica, Arial, sans-serif" font-size="39" font-weight="700">BY DOING</text>
      <text x="42" y="170" fill="#FFFFFF" opacity="0.9" font-family="Poppins, Helvetica, Arial, sans-serif" font-size="25">practice, reflect, grow</text>
    </g>

    <g transform="translate(1160 292)">
      <text x="0" y="0" fill="#FFFFFF" font-family="Poppins, Helvetica, Arial, sans-serif" font-size="58" font-weight="700">BEYOND</text>
      <text x="0" y="72" fill="#FFFFFF" font-family="Poppins, Helvetica, Arial, sans-serif" font-size="58" font-weight="700">THEORY</text>
      <text x="0" y="128" fill="#FFFFFF" opacity="0.9" font-family="Poppins, Helvetica, Arial, sans-serif" font-size="25">experiential learning</text>
    </g>

    <g transform="translate(84 78)">
      <rect width="72" height="72" rx="5" fill="#4E2A84"/>
      <text x="36" y="51" text-anchor="middle" font-family="Georgia, 'Times New Roman', serif" font-size="42" font-weight="700" fill="#FFFFFF">N</text>
      <text x="96" y="30" fill="#4E2A84" font-family="Poppins, Helvetica, Arial, sans-serif" font-size="20" font-weight="700" letter-spacing="2.5">IMC POV</text>
      <text x="96" y="61" fill="#111113" opacity="0.72" font-family="Poppins, Helvetica, Arial, sans-serif" font-size="18">Career Readiness</text>
    </g>
  </g>

  <defs>
    <filter id="shadow" x="434" y="142" width="694" height="634" filterUnits="userSpaceOnUse" color-interpolation-filters="sRGB">
      <feFlood flood-opacity="0" result="BackgroundImageFix"/>
      <feColorMatrix in="SourceAlpha" type="matrix" values="0 0 0 0 0 0 0 0 0 0 0 0 0 0 0 0 0 0 127 0" result="hardAlpha"/>
      <feOffset dy="18"/>
      <feGaussianBlur stdDeviation="20"/>
      <feComposite in2="hardAlpha" operator="out"/>
      <feColorMatrix type="matrix" values="0 0 0 0 0.067 0 0 0 0 0.067 0 0 0 0 0.075 0 0 0 0.16 0"/>
      <feBlend mode="normal" in2="BackgroundImageFix" result="effect1_dropShadow"/>
      <feBlend mode="normal" in="SourceGraphic" in2="effect1_dropShadow" result="shape"/>
    </filter>
    <linearGradient id="purpleA" x1="0" y1="0" x2="710" y2="384" gradientUnits="userSpaceOnUse">
      <stop stop-color="#4E2A84"/>
      <stop offset="1" stop-color="#2C1452"/>
    </linearGradient>
    <clipPath id="clip0">
      <rect width="1600" height="900" fill="white"/>
    </clipPath>
  </defs>
</svg>
