<svg width="1600" height="900" viewBox="0 0 1600 900" fill="none" xmlns="http://www.w3.org/2000/svg">
<rect width="1600" height="900" fill="#F5F5F5"/>
<g clip-path="url(#clip0_1_2)">
<path d="M1600 0H0V900H1600V0Z" fill="white"/>
<path opacity="0.04" d="M1600 0H0V900H1600V0Z" fill="#4E2A84"/>
<g opacity="0.18">
<path d="M160 0V900" stroke="#4E2A84"/>
<path d="M320 0V900" stroke="#4E2A84"/>
<path d="M480 0V900" stroke="#4E2A84"/>
<path d="M640 0V900" stroke="#4E2A84"/>
<path d="M800 0V900" stroke="#4E2A84"/>
<path d="M960 0V900" stroke="#4E2A84"/>
<path d="M1120 0V900" stroke="#4E2A84"/>
<path d="M1280 0V900" stroke="#4E2A84"/>
<path d="M1440 0V900" stroke="#4E2A84"/>
<path d="M0 150H1600" stroke="#4E2A84"/>
<path d="M0 300H1600" stroke="#4E2A84"/>
<path d="M0 450H1600" stroke="#4E2A84"/>
<path d="M0 600H1600" stroke="#4E2A84"/>
<path d="M0 750H1600" stroke="#4E2A84"/>
</g>

<path d="M0 0H446L218 900H0V0Z" fill="url(#paint0_linear_1_2)"/>
<path opacity=".92" d="M1348 0H1600V900H1138L1348 0Z" fill="#8F7CB5"/>
<path d="M0 84L532 900H456L0 204V84Z" fill="#EDE8F5"/>
<path d="M1600 84L1138 900H1062L1600 0V84Z" fill="#EDE8F5"/>

<g filter="url(#filter0_d_1_2)">
<path d="M1066 132H506C490.536 132 478 144.536 478 160V676C478 691.464 490.536 704 506 704H1066C1081.46 704 1094 691.464 1094 676V160C1094 144.536 1081.46 132 1066 132Z" fill="#111113"/>
<path d="M1042 188H530C520.059 188 512 196.059 512 206V654C512 663.941 520.059 672 530 672H1042C1051.94 672 1060 663.941 1060 654V206C1060 196.059 1051.94 188 1042 188Z" fill="#F8F7FB"/>
<path d="M610 560C674 488 728 510 786 430C850 342 932 352 1004 282" stroke="#4E2A84" stroke-width="10" stroke-linecap="round" fill="none"/>
<path d="M608 472C676 430 736 432 800 468C874 510 936 486 1008 416" stroke="#8F7CB5" stroke-width="8" stroke-linecap="round" fill="none"/>
<path d="M606 380C666 344 738 354 786 398C846 454 924 432 996 338" stroke="#B6ACD1" stroke-width="8" stroke-linecap="round" fill="none"/>
<path d="M610 560C622.15 560 632 550.15 632 538C632 525.85 622.15 516 610 516C597.85 516 588 525.85 588 538C588 550.15 597.85 560 610 560Z" fill="#4E2A84"/>
<path d="M786 452C798.15 452 808 442.15 808 430C808 417.85 798.15 408 786 408C773.85 408 764 417.85 764 430C764 442.15 773.85 452 786 452Z" fill="#4E2A84"/>
<path d="M1004 304C1016.15 304 1026 294.15 1026 282C1026 269.85 1016.15 260 1004 260C991.85 260 982 269.85 982 282C982 294.15 991.85 304 1004 304Z" fill="#4E2A84"/>
<path d="M568 604H1018" stroke="#D8CFE8" stroke-width="3"/>
<path d="M568 520H1018" stroke="#D8CFE8" stroke-width="3"/>
<path d="M568 436H1018" stroke="#D8CFE8" stroke-width="3"/>
<path d="M568 352H1018" stroke="#D8CFE8" stroke-width="3"/>
<path d="M568 268H1018" stroke="#D8CFE8" stroke-width="3"/>
<path d="M586 240H676" stroke="#4E2A84" stroke-width="10" stroke-linecap="round"/>
<path d="M586 266H742" stroke="#8F7CB5" stroke-width="10" stroke-linecap="round"/>
<path d="M846 240H936" stroke="#4E2A84" stroke-width="10" stroke-linecap="round"/>
<path d="M846 266H996" stroke="#8F7CB5" stroke-width="10" stroke-linecap="round"/>
</g>

<g opacity=".76">
<path d="M326 238C430 146 558 144 682 222" stroke="#4E2A84" stroke-width="5" fill="none"/>
<path d="M920 156C1076 84 1234 126 1362 262" stroke="#4E2A84" stroke-width="5" fill="none"/>
<path d="M350 730C488 788 632 782 784 702" stroke="#4E2A84" stroke-width="5" fill="none"/>
<circle cx="354" cy="194" r="28" fill="#B6ACD1"/>
<circle cx="482" cy="142" r="16" fill="#4E2A84"/>
<circle cx="1264" cy="220" r="30" fill="#D8CFE8"/>
<circle cx="1364" cy="313" r="17" fill="#4E2A84"/>
</g>

<g transform="translate(94 604)">
<rect width="336" height="214" rx="4" fill="#4E2A84"/>
<text x="42" y="74" fill="#FFFFFF" font-family="Poppins, Helvetica, Arial, sans-serif" font-size="40" font-weight="700">LEARN</text>
<text x="42" y="124" fill="#FFFFFF" font-family="Poppins, Helvetica, Arial, sans-serif" font-size="40" font-weight="700">BY DOING</text>
<text x="42" y="170" fill="#FFFFFF" opacity=".9" font-family="Poppins, Helvetica, Arial, sans-serif" font-size="25">reflection into readiness</text>
</g>

<g transform="translate(1150 292)">
<text x="0" y="0" fill="#FFFFFF" font-family="Poppins, Helvetica, Arial, sans-serif" font-size="62" font-weight="700">BEYOND</text>
<text x="0" y="76" fill="#FFFFFF" font-family="Poppins, Helvetica, Arial, sans-serif" font-size="62" font-weight="700">THEORY</text>
<text x="0" y="132" fill="#FFFFFF" opacity=".9" font-family="Poppins, Helvetica, Arial, sans-serif" font-size="26">career readiness</text>
</g>

<g transform="translate(84 78)">
<rect width="72" height="72" rx="5" fill="#4E2A84"/>
<text x="36" y="51" text-anchor="middle" font-family="Georgia, 'Times New Roman', serif" font-size="42" font-weight="700" fill="#FFFFFF">N</text>
<text x="96" y="30" fill="#4E2A84" font-family="Poppins, Helvetica, Arial, sans-serif" font-size="20" font-weight="700" letter-spacing="2.5">IMC POV</text>
<text x="96" y="61" fill="#111113" opacity=".72" font-family="Poppins, Helvetica, Arial, sans-serif" font-size="18">Career Readiness</text>
</g>
</g>
<defs>
<filter id="filter0_d_1_2" x="438" y="110" width="696" height="644" filterUnits="userSpaceOnUse" color-interpolation-filters="sRGB">
<feFlood flood-opacity="0" result="BackgroundImageFix"/>
<feColorMatrix in="SourceAlpha" type="matrix" values="0 0 0 0 0 0 0 0 0 0 0 0 0 0 0 0 0 0 127 0" result="hardAlpha"/>
<feOffset dy="18"/>
<feGaussianBlur stdDeviation="20"/>
<feComposite in2="hardAlpha" operator="out"/>
<feColorMatrix type="matrix" values="0 0 0 0 0.067 0 0 0 0 0.067 0 0 0 0 0.075 0 0 0 0.16 0"/>
<feBlend mode="normal" in2="BackgroundImageFix" result="effect1_dropShadow_1_2"/>
<feBlend mode="normal" in="SourceGraphic" in2="effect1_dropShadow_1_2" result="shape"/>
</filter>
<linearGradient id="paint0_linear_1_2" x1="0" y1="0" x2="710" y2="384" gradientUnits="userSpaceOnUse">
<stop stop-color="#4E2A84"/>
<stop offset="1" stop-color="#2C1452"/>
</linearGradient>
<clipPath id="clip0_1_2">
<rect width="1600" height="900" fill="white"/>
</clipPath>
</defs>
</svg>
