<svg width="1600" height="900" viewBox="0 0 1600 900" fill="none" xmlns="http://www.w3.org/2000/svg">
<rect width="1600" height="900" fill="#F5F5F5"/>
<path d="M1600 0H0V900H1600V0Z" fill="#F5F5F5"/>
<mask id="mask0_1_2" style="mask-type:luminance" maskUnits="userSpaceOnUse" x="0" y="0" width="1600" height="900">
<path d="M1600 0H0V900H1600V0Z" fill="white"/>
</mask>
<g mask="url(#mask0_1_2)">
<path d="M1600 0H0V900H1600V0Z" fill="white"/>
<path opacity="0.04" d="M1600 0H0V900H1600V0Z" fill="#4E2A84"/>
<g opacity="0.16">
<path d="M160 0V900" stroke="#4E2A84"/>
<path d="M320 0V900" stroke="#4E2A84"/>
<path d="M480 0V900" stroke="#4E2A84"/>
<path d="M640 0V900" stroke="#4E2A84"/>
<path d="M800 0V900" stroke="#4E2A84"/>
<path d="M960 0V900" stroke="#4E2A84"/>
<path d="M1120 0V900" stroke="#4E2A84"/>
<path d="M1280 0V900" stroke="#4E2A84"/>
<path d="M1440 0V900" stroke="#4E2A84"/>
<path d="M0 150H1600" stroke="#4E2A84"/>
<path d="M0 300H1600" stroke="#4E2A84"/>
<path d="M0 450H1600" stroke="#4E2A84"/>
<path d="M0 600H1600" stroke="#4E2A84"/>
<path d="M0 750H1600" stroke="#4E2A84"/>
</g>
<path d="M0 0H420L208 900H0V0Z" fill="url(#paint0_linear_1_2)"/>
<path opacity="0.92" d="M1338 0H1600V900H1138L1338 0Z" fill="#8F7CB5"/>
<path d="M0 82L528 900H452L0 200V82Z" fill="#EDE8F5"/>
<path d="M1600 84L1138 900H1062L1600 0V84Z" fill="#EDE8F5"/>

<g filter="url(#filter0_d_1_2)">
<path d="M516 161H1084C1100.57 161 1114 174.431 1114 191V709C1114 725.569 1100.57 739 1084 739H516C499.431 739 486 725.569 486 709V191C486 174.431 499.431 161 516 161Z" fill="#111113"/>
<path d="M542 215H1058C1069.05 215 1078 223.954 1078 235V685C1078 696.046 1069.05 705 1058 705H542C530.954 705 522 696.046 522 685V235C522 223.954 530.954 215 542 215Z" fill="#F8F7FB"/>

<rect x="598" y="282" width="404" height="86" rx="43" fill="#EDE8F5"/>
<circle cx="642" cy="325" r="18" fill="#4E2A84"/>
<path d="M674 325H944" stroke="#8F7CB5" stroke-width="13" stroke-linecap="round"/>

<rect x="612" y="416" width="376" height="154" rx="28" fill="white"/>
<path d="M646 456H824" stroke="#4E2A84" stroke-width="12" stroke-linecap="round"/>
<path d="M646 496H934" stroke="#B6ACD1" stroke-width="12" stroke-linecap="round"/>
<path d="M646 536H896" stroke="#8F7CB5" stroke-width="12" stroke-linecap="round"/>

<path d="M566 624H1018" stroke="#111113" stroke-width="5" stroke-linecap="round" opacity="0.65"/>
<path d="M566 624C660 572 740 604 800 624C866 646 936 638 1018 586" stroke="#8F7CB5" stroke-width="7" stroke-linecap="round" fill="none"/>

<circle cx="620" cy="640" r="13" fill="#4E2A84"/>
<circle cx="688" cy="604" r="13" fill="#B6ACD1"/>
<circle cx="758" cy="614" r="13" fill="#8F7CB5"/>
<circle cx="830" cy="638" r="13" fill="#4E2A84"/>
<circle cx="904" cy="626" r="13" fill="#B6ACD1"/>
<circle cx="978" cy="598" r="13" fill="#8F7CB5"/>

<g transform="translate(884 248)">
<circle cx="86" cy="86" r="66" fill="#4E2A84"/>
<text x="86" y="106" text-anchor="middle" fill="#FFFFFF" font-family="Poppins, Helvetica, Arial, sans-serif" font-size="56" font-weight="700">21</text>
<path d="M38 154H134" stroke="#D8CFE8" stroke-width="10" stroke-linecap="round"/>
</g>

<path d="M734 386L762 416" stroke="#111113" stroke-width="6" stroke-linecap="round" opacity="0.66"/>
<path d="M858 386L830 416" stroke="#111113" stroke-width="6" stroke-linecap="round" opacity="0.66"/>
</g>

<g opacity="0.78">
<path d="M318 246C432 154 574 154 704 246" stroke="#4E2A84" stroke-width="5" fill="none"/>
<path d="M910 158C1066 86 1234 124 1362 262" stroke="#4E2A84" stroke-width="5" fill="none"/>
<path d="M348 726C492 790 660 780 812 696" stroke="#4E2A84" stroke-width="5" fill="none"/>
<circle cx="356" cy="196" r="28" fill="#B6ACD1"/>
<circle cx="488" cy="144" r="16" fill="#4E2A84"/>
<circle cx="1268" cy="222" r="30" fill="#D8CFE8"/>
<circle cx="1368" cy="316" r="17" fill="#4E2A84"/>
</g>

<g transform="translate(92 604)">
<rect width="346" height="214" rx="4" fill="#4E2A84"/>
<text x="42" y="72" fill="#FFFFFF" font-family="Poppins, Helvetica, Arial, sans-serif" font-size="39" font-weight="700">SEARCH</text>
<text x="42" y="122" fill="#FFFFFF" font-family="Poppins, Helvetica, Arial, sans-serif" font-size="39" font-weight="700">IS SHIFTING</text>
<text x="42" y="170" fill="#FFFFFF" opacity="0.9" font-family="Poppins, Helvetica, Arial, sans-serif" font-size="25">visibility, traffic, attribution</text>
</g>

<g transform="translate(1160 292)">
<text x="0" y="0" fill="#FFFFFF" font-family="Poppins, Helvetica, Arial, sans-serif" font-size="58" font-weight="700">AI</text>
<text x="0" y="72" fill="#FFFFFF" font-family="Poppins, Helvetica, Arial, sans-serif" font-size="58" font-weight="700">SEARCH</text>
<text x="0" y="144" fill="#FFFFFF" font-family="Poppins, Helvetica, Arial, sans-serif" font-size="58" font-weight="700">OVERVIEWS</text>
</g>

<g transform="translate(84 78)">
<rect width="72" height="72" rx="5" fill="#4E2A84"/>
<text x="36" y="51" text-anchor="middle" font-family="Georgia, 'Times New Roman', serif" font-size="42" font-weight="700" fill="#FFFFFF">N</text>
<text x="96" y="30" fill="#4E2A84" font-family="Poppins, Helvetica, Arial, sans-serif" font-size="20" font-weight="700" letter-spacing="2.5">IMC POV</text>
<text x="96" y="61" fill="#111113" opacity="0.72" font-family="Poppins, Helvetica, Arial, sans-serif" font-size="18">AI Search Report</text>
</g>
</g>
<defs>
<filter id="filter0_d_1_2" x="446" y="139" width="708" height="658" filterUnits="userSpaceOnUse" color-interpolation-filters="sRGB">
<feFlood flood-opacity="0" result="BackgroundImageFix"/>
<feColorMatrix in="SourceAlpha" type="matrix" values="0 0 0 0 0 0 0 0 0 0 0 0 0 0 0 0 0 0 127 0" result="hardAlpha"/>
<feOffset dy="18"/>
<feGaussianBlur stdDeviation="20"/>
<feComposite in2="hardAlpha" operator="out"/>
<feColorMatrix type="matrix" values="0 0 0 0 0.067 0 0 0 0 0.067 0 0 0 0 0.075 0 0 0 0.16 0"/>
<feBlend mode="normal" in2="BackgroundImageFix" result="effect1_dropShadow_1_2"/>
<feBlend mode="normal" in="SourceGraphic" in2="effect1_dropShadow_1_2" result="shape"/>
</filter>
<linearGradient id="paint0_linear_1_2" x1="0" y1="0" x2="710" y2="384" gradientUnits="userSpaceOnUse">
<stop stop-color="#4E2A84"/>
<stop offset="1" stop-color="#2C1452"/>
</linearGradient>
</defs>
</svg>
