<svg width="1600" height="900" viewBox="0 0 1600 900" fill="none" xmlns="http://www.w3.org/2000/svg">
  <rect width="1600" height="900" fill="#F7F4EF"/>
  <rect x="0" y="0" width="1600" height="900" fill="#FFFFFF" opacity=".48"/>

  <path d="M0 705C248 646 407 692 603 638C809 582 924 514 1136 551C1305 580 1448 656 1600 601V900H0V705Z" fill="#E9E1D2"/>
  <path d="M0 758C194 701 374 743 560 707C784 664 960 589 1202 634C1370 666 1474 718 1600 696V900H0V758Z" fill="#D6CAB8" opacity=".62"/>

  <g transform="translate(154 142)">
    <rect x="0" y="0" width="840" height="520" rx="2" fill="#B87434"/>
    <rect x="36" y="38" width="768" height="444" fill="#C98645"/>
    <path d="M54 63H786V85H54V63Z" fill="#E8D9BD"/>
    <path d="M54 435H786V458H54V435Z" fill="#E8D9BD"/>
    <rect x="88" y="104" width="118" height="246" fill="#284F61"/>
    <rect x="254" y="104" width="118" height="246" fill="#284F61"/>
    <rect x="420" y="104" width="118" height="246" fill="#284F61"/>
    <rect x="586" y="104" width="118" height="246" fill="#284F61"/>
    <path d="M88 104H206V350H88V104Z" fill="#5B8190" opacity=".55"/>
    <path d="M254 104H372V350H254V104Z" fill="#5B8190" opacity=".55"/>
    <path d="M420 104H538V350H420V104Z" fill="#5B8190" opacity=".55"/>
    <path d="M586 104H704V350H586V104Z" fill="#5B8190" opacity=".55"/>
    <rect x="366" y="342" width="124" height="140" fill="#4E2A84"/>
    <rect x="390" y="370" width="76" height="112" fill="#2F6B78"/>
    <path d="M399 185C399 137 433 104 472 104C511 104 545 137 545 185V350H399V185Z" fill="#E8D9BD"/>
    <path d="M424 190C424 158 445 136 472 136C499 136 520 158 520 190V350H424V190Z" fill="#2F6B78"/>
  </g>

  <g transform="translate(1040 122)">
    <path d="M108 52C163 10 241 24 280 82C336 44 420 58 456 128C531 122 592 176 592 252C592 329 531 386 455 379C424 442 337 464 282 415C233 465 145 452 110 389C42 390 0 339 0 278C0 224 30 182 80 166C58 121 70 81 108 52Z" fill="#8A8F52"/>
    <path d="M98 82C151 51 211 61 248 108C294 78 358 90 386 140C445 140 494 180 494 240C494 300 448 342 389 338C361 390 296 400 252 360C214 398 148 390 120 342C62 343 28 305 28 260C28 218 51 188 88 176C70 137 70 100 98 82Z" fill="#7C864B"/>
  </g>

  <g transform="translate(92 352)">
    <path d="M88 0C122 52 122 148 83 224C61 268 42 318 44 404" stroke="#6E513C" stroke-width="28" stroke-linecap="round"/>
    <path d="M86 32C58 78 30 94 0 104" stroke="#6E513C" stroke-width="18" stroke-linecap="round"/>
    <path d="M104 60C150 98 187 111 242 102" stroke="#6E513C" stroke-width="18" stroke-linecap="round"/>
    <path d="M58 70C15 62 -21 72 -58 102" stroke="#879055" stroke-width="76" stroke-linecap="round"/>
    <path d="M132 48C164 16 222 18 258 54" stroke="#879055" stroke-width="80" stroke-linecap="round"/>
    <path d="M88 0C140 -28 206 -18 250 34" stroke="#9CA05D" stroke-width="76" stroke-linecap="round"/>
  </g>

  <g transform="translate(292 572)">
    <rect x="0" y="170" width="1020" height="18" rx="9" fill="#B7A890"/>

    <g transform="translate(0 58)">
      <circle cx="44" cy="36" r="24" fill="#5C3328"/>
      <path d="M22 68C42 50 70 52 88 72L102 154H4L22 68Z" fill="#2F6B78"/>
      <path d="M14 112H94" stroke="#E9E1D2" stroke-width="8" stroke-linecap="round"/>
      <rect x="44" y="154" width="16" height="64" rx="8" fill="#26343D"/>
      <rect x="74" y="154" width="16" height="64" rx="8" fill="#26343D"/>
    </g>

    <g transform="translate(176 22)">
      <circle cx="52" cy="38" r="26" fill="#7A4A2B"/>
      <path d="M22 74C44 54 76 56 96 80L112 176H4L22 74Z" fill="#4E2A84"/>
      <path d="M36 176L12 252" stroke="#26343D" stroke-width="18" stroke-linecap="round"/>
      <path d="M90 176L122 250" stroke="#26343D" stroke-width="18" stroke-linecap="round"/>
      <path d="M24 110L-28 138" stroke="#4E2A84" stroke-width="18" stroke-linecap="round"/>
      <path d="M96 108L154 126" stroke="#4E2A84" stroke-width="18" stroke-linecap="round"/>
    </g>

    <g transform="translate(396 74)">
      <circle cx="42" cy="30" r="22" fill="#4D2E25"/>
      <path d="M18 62C40 44 70 46 88 66L98 156H6L18 62Z" fill="#B87434"/>
      <path d="M20 102H92" stroke="#E8D9BD" stroke-width="8" stroke-linecap="round"/>
      <path d="M30 156L12 222" stroke="#26343D" stroke-width="16" stroke-linecap="round"/>
      <path d="M78 156L100 222" stroke="#26343D" stroke-width="16" stroke-linecap="round"/>
    </g>

    <g transform="translate(570 38)">
      <circle cx="50" cy="34" r="25" fill="#6A3F2D"/>
      <path d="M22 70C45 50 78 52 100 76L116 172H4L22 70Z" fill="#E8D9BD"/>
      <path d="M30 172L0 242" stroke="#26343D" stroke-width="18" stroke-linecap="round"/>
      <path d="M96 172L132 236" stroke="#26343D" stroke-width="18" stroke-linecap="round"/>
      <path d="M108 92L172 66" stroke="#E8D9BD" stroke-width="16" stroke-linecap="round"/>
      <rect x="160" y="42" width="74" height="44" rx="5" fill="#FFFFFF"/>
      <path d="M176 60H218" stroke="#4E2A84" stroke-width="5" stroke-linecap="round"/>
    </g>

    <g transform="translate(798 0)">
      <circle cx="48" cy="42" r="27" fill="#432820"/>
      <path d="M20 78C44 58 80 60 104 84L124 190H0L20 78Z" fill="#6B7F9B"/>
      <path d="M26 190L8 260" stroke="#26343D" stroke-width="18" stroke-linecap="round"/>
      <path d="M98 190L132 256" stroke="#26343D" stroke-width="18" stroke-linecap="round"/>
      <path d="M20 100L-58 128" stroke="#6B7F9B" stroke-width="18" stroke-linecap="round"/>
    </g>
  </g>

  <g transform="translate(1040 584)">
    <rect x="0" y="0" width="396" height="210" fill="#4E2A84"/>
    <text x="38" y="70" fill="#FFFFFF" font-family="Poppins, Helvetica, Arial, sans-serif" font-size="38" font-weight="700">BEYOND</text>
    <text x="38" y="118" fill="#FFFFFF" font-family="Poppins, Helvetica, Arial, sans-serif" font-size="38" font-weight="700">THEORY</text>
    <text x="38" y="166" fill="#FFFFFF" font-family="Poppins, Helvetica, Arial, sans-serif" font-size="25">Experiential learning</text>
  </g>

  <g transform="translate(80 78)">
    <rect width="72" height="72" rx="5" fill="#4E2A84"/>
    <text x="36" y="51" text-anchor="middle" font-family="Georgia, 'Times New Roman', serif" font-size="42" font-weight="700" fill="#FFFFFF">N</text>
    <text x="96" y="30" fill="#4E2A84" font-family="Poppins, Helvetica, Arial, sans-serif" font-size="20" font-weight="700" letter-spacing="2.5">IMC POV</text>
    <text x="96" y="61" fill="#111113" opacity=".72" font-family="Poppins, Helvetica, Arial, sans-serif" font-size="18">Career Readiness</text>
  </g>
</svg>
