<svg width="1600" height="900" viewBox="0 0 1600 900" fill="none" xmlns="http://www.w3.org/2000/svg">
<rect width="1600" height="900" fill="#F5F5F5"/>
<path d="M1600 0H0V900H1600V0Z" fill="#F5F5F5"/>
<mask id="mask0_1_2" style="mask-type:luminance" maskUnits="userSpaceOnUse" x="0" y="0" width="1600" height="900">
<path d="M1600 0H0V900H1600V0Z" fill="white"/>
</mask>
<g mask="url(#mask0_1_2)">
<path d="M1600 0H0V900H1600V0Z" fill="white"/>
<path opacity="0.04" d="M1600 0H0V900H1600V0Z" fill="#4E2A84"/>
<g opacity="0.16">
<path d="M160 0V900" stroke="#4E2A84"/>
<path d="M320 0V900" stroke="#4E2A84"/>
<path d="M480 0V900" stroke="#4E2A84"/>
<path d="M640 0V900" stroke="#4E2A84"/>
<path d="M800 0V900" stroke="#4E2A84"/>
<path d="M960 0V900" stroke="#4E2A84"/>
<path d="M1120 0V900" stroke="#4E2A84"/>
<path d="M1280 0V900" stroke="#4E2A84"/>
<path d="M1440 0V900" stroke="#4E2A84"/>
<path d="M0 150H1600" stroke="#4E2A84"/>
<path d="M0 300H1600" stroke="#4E2A84"/>
<path d="M0 450H1600" stroke="#4E2A84"/>
<path d="M0 600H1600" stroke="#4E2A84"/>
<path d="M0 750H1600" stroke="#4E2A84"/>
</g>
<path d="M0 0H420L208 900H0V0Z" fill="url(#paint0_linear_1_2)"/>
<path opacity="0.92" d="M1338 0H1600V900H1138L1338 0Z" fill="#8F7CB5"/>
<path d="M0 82L528 900H452L0 200V82Z" fill="#EDE8F5"/>
<path d="M1600 84L1138 900H1062L1600 0V84Z" fill="#EDE8F5"/>
<path d="M246 97H184C181.239 97 179 99.2386 179 102V164C179 166.761 181.239 169 184 169H246C248.761 169 251 166.761 251 164V102C251 99.2386 248.761 97 246 97Z" fill="#4E2A84"/>
<path d="M227.761 116.455V147H222.183L208.894 127.775H208.671V147H202.212V116.455H207.88L221.065 135.665H221.333V116.455H227.761Z" fill="white"/>
</g>
<g filter="url(#filter0_d_1_2)">
<path d="M516 122H1084C1100.57 122 1114 135.431 1114 152V670C1114 686.569 1100.57 700 1084 700H516C499.431 700 486 686.569 486 670V152C486 135.431 499.431 122 516 122Z" fill="#111113"/>
<path d="M542 176H1058C1069.05 176 1078 184.954 1078 196V646C1078 657.046 1069.05 666 1058 666H542C530.954 666 522 657.046 522 646V196C522 184.954 530.954 176 542 176Z" fill="#F8F7FB"/>
<path d="M600 576C652 492 720 452 800 452C880 452 948 492 1000 576" stroke="#D8CFE8" stroke-width="10" stroke-linecap="round"/>
<path d="M618 316C662 262 720 234 800 234C880 234 938 262 982 316" stroke="#D8CFE8" stroke-width="10" stroke-linecap="round"/>
<path d="M684 332C684 268 736 216 800 216C864 216 916 268 916 332V458C916 522 864 574 800 574C736 574 684 522 684 458V332Z" fill="#EDE8F5"/>
<path d="M716 346C716 300 754 262 800 262C846 262 884 300 884 346V446C884 492 846 530 800 530C754 530 716 492 716 446V346Z" fill="white"/>
<path d="M760 389C772.703 389 783 378.703 783 366C783 353.297 772.703 343 760 343C747.297 343 737 353.297 737 366C737 378.703 747.297 389 760 389Z" fill="#4E2A84"/>
<path d="M840 389C852.703 389 863 378.703 863 366C863 353.297 852.703 343 840 343C827.297 343 817 353.297 817 366C817 378.703 827.297 389 840 389Z" fill="#4E2A84"/>
<path d="M768 367C771.866 367 775 363.866 775 360C775 356.134 771.866 353 768 353C764.134 353 761 356.134 761 360C761 363.866 764.134 367 768 367Z" fill="white"/>
<path d="M848 367C851.866 367 855 363.866 855 360C855 356.134 851.866 353 848 353C844.134 353 841 356.134 841 360C841 363.866 844.134 367 848 367Z" fill="white"/>
<path d="M764 452C786 478 814 478 836 452" stroke="#8F7CB5" stroke-width="9" stroke-linecap="round"/>
<path d="M800 398L780 428H820L800 398Z" fill="#B6ACD1"/>
<path d="M696 300C719.196 300 738 281.196 738 258C738 234.804 719.196 216 696 216C672.804 216 654 234.804 654 258C654 281.196 672.804 300 696 300Z" fill="#B6ACD1"/>
<path d="M904 300C927.196 300 946 281.196 946 258C946 234.804 927.196 216 904 216C880.804 216 862 234.804 862 258C862 281.196 880.804 300 904 300Z" fill="#B6ACD1"/>
<path d="M696 280C708.15 280 718 270.15 718 258C718 245.85 708.15 236 696 236C683.85 236 674 245.85 674 258C674 270.15 683.85 280 696 280Z" fill="#F8F7FB"/>
<path d="M904 280C916.15 280 926 270.15 926 258C926 245.85 916.15 236 904 236C891.85 236 882 245.85 882 258C882 270.15 891.85 280 904 280Z" fill="#F8F7FB"/>
<path opacity="0.86" d="M614 246H732" stroke="#4E2A84" stroke-width="12" stroke-linecap="round"/>
<path opacity="0.86" d="M868 246H986" stroke="#4E2A84" stroke-width="12" stroke-linecap="round"/>
<path d="M612 610H766" stroke="#8F7CB5" stroke-width="12" stroke-linecap="round"/>
<path d="M834 610H988" stroke="#8F7CB5" stroke-width="12" stroke-linecap="round"/>
<path d="M630 426C639.941 426 648 417.941 648 408C648 398.059 639.941 390 630 390C620.059 390 612 398.059 612 408C612 417.941 620.059 426 630 426Z" fill="#4E2A84"/>
<path d="M970 426C979.941 426 988 417.941 988 408C988 398.059 979.941 390 970 390C960.059 390 952 398.059 952 408C952 417.941 960.059 426 970 426Z" fill="#4E2A84"/>
<path d="M642 506C649.732 506 656 499.732 656 492C656 484.268 649.732 478 642 478C634.268 478 628 484.268 628 492C628 499.732 634.268 506 642 506Z" fill="#B6ACD1"/>
<path d="M958 506C965.732 506 972 499.732 972 492C972 484.268 965.732 478 958 478C950.268 478 944 484.268 944 492C944 499.732 950.268 506 958 506Z" fill="#B6ACD1"/>
</g>
<defs>
<filter id="filter0_d_1_2" x="446" y="100" width="708" height="658" filterUnits="userSpaceOnUse" color-interpolation-filters="sRGB">
<feFlood flood-opacity="0" result="BackgroundImageFix"/>
<feColorMatrix in="SourceAlpha" type="matrix" values="0 0 0 0 0 0 0 0 0 0 0 0 0 0 0 0 0 0 127 0" result="hardAlpha"/>
<feOffset dy="18"/>
<feGaussianBlur stdDeviation="20"/>
<feComposite in2="hardAlpha" operator="out"/>
<feColorMatrix type="matrix" values="0 0 0 0 0.067 0 0 0 0 0.067 0 0 0 0 0.075 0 0 0 0.16 0"/>
<feBlend mode="normal" in2="BackgroundImageFix" result="effect1_dropShadow_1_2"/>
<feBlend mode="normal" in="SourceGraphic" in2="effect1_dropShadow_1_2" result="shape"/>
</filter>
<linearGradient id="paint0_linear_1_2" x1="0" y1="0" x2="710" y2="384" gradientUnits="userSpaceOnUse">
<stop stop-color="#4E2A84"/>
<stop offset="1" stop-color="#2C1452"/>
</linearGradient>
</defs>
</svg>
