<svg width="1600" height="900" viewBox="0 0 1600 900" fill="none" xmlns="http://www.w3.org/2000/svg">
<rect width="1600" height="900" fill="#F5F5F5"/>
<g clip-path="url(#clip0_1_2)">
<path d="M1600 0H0V900H1600V0Z" fill="#F5F5F5"/>
<mask id="mask0_1_2" style="mask-type:luminance" maskUnits="userSpaceOnUse" x="0" y="0" width="1600" height="900">
<path d="M1600 0H0V900H1600V0Z" fill="white"/>
</mask>
<g mask="url(#mask0_1_2)">
<path d="M1600 0H0V900H1600V0Z" fill="white"/>
<path opacity="0.04" d="M1600 0H0V900H1600V0Z" fill="#4E2A84"/>
<g opacity="0.16">
<path d="M160 0V900" stroke="#4E2A84"/>
<path d="M320 0V900" stroke="#4E2A84"/>
<path d="M480 0V900" stroke="#4E2A84"/>
<path d="M640 0V900" stroke="#4E2A84"/>
<path d="M800 0V900" stroke="#4E2A84"/>
<path d="M960 0V900" stroke="#4E2A84"/>
<path d="M1120 0V900" stroke="#4E2A84"/>
<path d="M1280 0V900" stroke="#4E2A84"/>
<path d="M1440 0V900" stroke="#4E2A84"/>
<path d="M0 150H1600" stroke="#4E2A84"/>
<path d="M0 300H1600" stroke="#4E2A84"/>
<path d="M0 450H1600" stroke="#4E2A84"/>
<path d="M0 600H1600" stroke="#4E2A84"/>
<path d="M0 750H1600" stroke="#4E2A84"/>
</g>
<path d="M0 0H420L208 900H0V0Z" fill="url(#paint0_linear_1_2)"/>
<path opacity="0.92" d="M1338 0H1600V900H1138L1338 0Z" fill="#8F7CB5"/>
<path d="M0 82L528 900H452L0 200V82Z" fill="#EDE8F5"/>
<path d="M1600 84L1138 900H1062L1600 0V84Z" fill="#EDE8F5"/>
<g filter="url(#filter0_d_1_2)">
<path d="M500 150H1068C1084.57 150 1098 163.431 1098 180V698C1098 714.569 1084.57 728 1068 728H500C483.431 728 470 714.569 470 698V180C470 163.431 483.431 150 500 150Z" fill="#111113"/>
<path d="M526 204H1042C1053.05 204 1062 212.954 1062 224V674C1062 685.046 1053.05 694 1042 694H526C514.954 694 506 685.046 506 674V224C506 212.954 514.954 204 526 204Z" fill="#F8F7FB"/>
<path d="M784 626C882.307 626 962 546.307 962 448C962 349.693 882.307 270 784 270C685.693 270 606 349.693 606 448C606 546.307 685.693 626 784 626Z" fill="#EDE8F5"/>
<path d="M784 578C855.797 578 914 519.797 914 448C914 376.203 855.797 318 784 318C712.203 318 654 376.203 654 448C654 519.797 712.203 578 784 578Z" fill="white"/>
<path d="M606 448C666 414 724 414 784 448C844 482 902 482 962 448" stroke="#8F7CB5" stroke-width="9" stroke-linecap="round"/>
<path d="M650 336C720 372 848 372 918 336" stroke="#B6ACD1" stroke-width="8" stroke-linecap="round"/>
<path d="M650 560C720 524 848 524 918 560" stroke="#B6ACD1" stroke-width="8" stroke-linecap="round"/>
<path d="M784 270V626" stroke="#D8CFE8" stroke-width="7" stroke-linecap="round"/>
<path opacity="0.7" d="M606 448H962" stroke="#D8CFE8" stroke-width="7" stroke-linecap="round"/>
<path d="M616 318C625.941 318 634 309.941 634 300C634 290.059 625.941 282 616 282C606.059 282 598 290.059 598 300C598 309.941 606.059 318 616 318Z" fill="#4E2A84"/>
<path d="M964 618C976.15 618 986 608.15 986 596C986 583.85 976.15 574 964 574C951.85 574 942 583.85 942 596C942 608.15 951.85 618 964 618Z" fill="#8F7CB5"/>
<path d="M990 331C998.284 331 1005 324.284 1005 316C1005 307.716 998.284 301 990 301C981.716 301 975 307.716 975 316C975 324.284 981.716 331 990 331Z" fill="#B6ACD1"/>
<path opacity="0.65" d="M594 654H974" stroke="#111113" stroke-width="5" stroke-linecap="round"/>
</g>
<path d="M246 97H184C181.239 97 179 99.2386 179 102V164C179 166.761 181.239 169 184 169H246C248.761 169 251 166.761 251 164V102C251 99.2386 248.761 97 246 97Z" fill="#4E2A84"/>
<path d="M227.761 116.455V147H222.183L208.894 127.775H208.671V147H202.212V116.455H207.88L221.065 135.665H221.333V116.455H227.761Z" fill="white"/>
</g>
</g>
<defs>
<filter id="filter0_d_1_2" x="430" y="128" width="708" height="658" filterUnits="userSpaceOnUse" color-interpolation-filters="sRGB">
<feFlood flood-opacity="0" result="BackgroundImageFix"/>
<feColorMatrix in="SourceAlpha" type="matrix" values="0 0 0 0 0 0 0 0 0 0 0 0 0 0 0 0 0 0 127 0" result="hardAlpha"/>
<feOffset dy="18"/>
<feGaussianBlur stdDeviation="20"/>
<feComposite in2="hardAlpha" operator="out"/>
<feColorMatrix type="matrix" values="0 0 0 0 0.067 0 0 0 0 0.067 0 0 0 0 0.075 0 0 0 0.16 0"/>
<feBlend mode="normal" in2="BackgroundImageFix" result="effect1_dropShadow_1_2"/>
<feBlend mode="normal" in="SourceGraphic" in2="effect1_dropShadow_1_2" result="shape"/>
</filter>
<linearGradient id="paint0_linear_1_2" x1="0" y1="0" x2="710" y2="384" gradientUnits="userSpaceOnUse">
<stop stop-color="#4E2A84"/>
<stop offset="1" stop-color="#2C1452"/>
</linearGradient>
<clipPath id="clip0_1_2">
<rect width="1600" height="900" fill="white"/>
</clipPath>
</defs>
</svg>
