<svg width="1600" height="900" viewBox="0 0 1600 900" fill="none" xmlns="http://www.w3.org/2000/svg">
<rect width="1600" height="900" fill="#FFFFFF"/>
<rect width="1600" height="900" fill="#4E2A84" opacity="0.04"/>
<g opacity="0.2" stroke="#4E2A84" stroke-width="1">
<path d="M120 0V900"/>
<path d="M240 0V900"/>
<path d="M360 0V900"/>
<path d="M480 0V900"/>
<path d="M600 0V900"/>
<path d="M720 0V900"/>
<path d="M840 0V900"/>
<path d="M960 0V900"/>
<path d="M1080 0V900"/>
<path d="M1200 0V900"/>
<path d="M1320 0V900"/>
<path d="M1440 0V900"/>
<path d="M0 120H1600"/>
<path d="M0 240H1600"/>
<path d="M0 360H1600"/>
<path d="M0 480H1600"/>
<path d="M0 600H1600"/>
<path d="M0 720H1600"/>
<path d="M0 840H1600"/>
</g>

<path d="M0 0H440L220 900H0V0Z" fill="url(#paint0_linear_1_2)"/>
<path d="M1344 0H1600V900H1136L1344 0Z" fill="#8F7CB5" opacity="0.92"/>
<path d="M0 88L528 900H452L0 204V88Z" fill="#EDE8F5"/>
<path d="M1600 82L1138 900H1062L1600 0V82Z" fill="#EDE8F5"/>

<g filter="url(#shadow0_1_2)">
<rect x="470" y="136" width="646" height="516" rx="28" fill="#111113"/>
<rect x="502" y="190" width="582" height="414" rx="18" fill="#F8F7FB"/>
<rect x="538" y="230" width="144" height="96" rx="10" fill="#EDE8F5"/>
<rect x="710" y="230" width="144" height="96" rx="10" fill="#EDE8F5"/>
<rect x="882" y="230" width="164" height="96" rx="10" fill="#EDE8F5"/>
<path d="M562 536H1040" stroke="#D8CFE8" stroke-width="3"/>
<path d="M562 476H1040" stroke="#D8CFE8" stroke-width="3"/>
<path d="M562 416H1040" stroke="#D8CFE8" stroke-width="3"/>
<path d="M562 356H1040" stroke="#D8CFE8" stroke-width="3"/>
<rect x="594" y="470" width="52" height="66" fill="#B6ACD1"/>
<rect x="686" y="428" width="52" height="108" fill="#8F7CB5"/>
<rect x="778" y="382" width="52" height="154" fill="#4E2A84"/>
<rect x="870" y="326" width="52" height="210" fill="#6B4FA0"/>
<path d="M562 514C650 500 706 472 768 424C852 360 924 364 1040 286" stroke="#4E2A84" stroke-width="8" stroke-linecap="round"/>
<circle cx="768" cy="424" r="15" fill="#4E2A84"/>
<circle cx="1040" cy="286" r="16" fill="#4E2A84"/>
<path d="M586 275H636" stroke="#4E2A84" stroke-width="9" stroke-linecap="round"/>
<path d="M586 296H660" stroke="#8F7CB5" stroke-width="9" stroke-linecap="round"/>
<path d="M758 275H808" stroke="#4E2A84" stroke-width="9" stroke-linecap="round"/>
<path d="M758 296H830" stroke="#8F7CB5" stroke-width="9" stroke-linecap="round"/>
<path d="M930 275H980" stroke="#4E2A84" stroke-width="9" stroke-linecap="round"/>
<path d="M930 296H1010" stroke="#8F7CB5" stroke-width="9" stroke-linecap="round"/>
</g>

<g opacity="0.75">
<path d="M334 238C436 142 562 142 682 222" stroke="#4E2A84" stroke-width="5" fill="none"/>
<path d="M910 166C1062 88 1228 122 1360 260" stroke="#4E2A84" stroke-width="5" fill="none"/>
<path d="M350 708C484 784 628 782 782 704" stroke="#4E2A84" stroke-width="5" fill="none"/>
<circle cx="354" cy="222" r="28" fill="#B6ACD1"/>
<circle cx="482" cy="164" r="16" fill="#4E2A84"/>
<circle cx="1274" cy="250" r="30" fill="#D8CFE8"/>
<circle cx="1374" cy="326" r="17" fill="#4E2A84"/>
<circle cx="450" cy="732" r="22" fill="#4E2A84"/>
</g>

<g transform="translate(92 604)">
<rect x="0" y="0" width="330" height="210" rx="4" fill="#4E2A84"/>
<text x="42" y="74" fill="#FFFFFF" font-family="Poppins, Helvetica, Arial, sans-serif" font-size="42" font-weight="700">ROI</text>
<text x="42" y="126" fill="#FFFFFF" font-family="Poppins, Helvetica, Arial, sans-serif" font-size="42" font-weight="700">REALITY</text>
<text x="42" y="170" fill="#FFFFFF" opacity="0.9" font-family="Poppins, Helvetica, Arial, sans-serif" font-size="26">measurement before momentum</text>
</g>

<g transform="translate(1150 298)">
<text x="0" y="0" fill="#FFFFFF" font-family="Poppins, Helvetica, Arial, sans-serif" font-size="66" font-weight="700">WHAT</text>
<text x="0" y="78" fill="#FFFFFF" font-family="Poppins, Helvetica, Arial, sans-serif" font-size="66" font-weight="700">IS AI</text>
<text x="0" y="156" fill="#FFFFFF" font-family="Poppins, Helvetica, Arial, sans-serif" font-size="66" font-weight="700">WORTH?</text>
</g>

<g transform="translate(84 78)">
<rect width="72" height="72" rx="5" fill="#4E2A84"/>
<text x="36" y="51" text-anchor="middle" font-family="Georgia, 'Times New Roman', serif" font-size="42" font-weight="700" fill="#FFFFFF">N</text>
<text x="96" y="30" fill="#4E2A84" font-family="Poppins, Helvetica, Arial, sans-serif" font-size="20" font-weight="700" letter-spacing="2.5">IMC POV</text>
<text x="96" y="61" fill="#111113" opacity="0.72" font-family="Poppins, Helvetica, Arial, sans-serif" font-size="18">AI Strategy</text>
</g>

<defs>
<filter id="shadow0_1_2" x="430" y="106" width="726" height="596" filterUnits="userSpaceOnUse" color-interpolation-filters="sRGB">
<feFlood flood-opacity="0" result="BackgroundImageFix"/>
<feColorMatrix in="SourceAlpha" type="matrix" values="0 0 0 0 0 0 0 0 0 0 0 0 0 0 0 0 0 0 127 0" result="hardAlpha"/>
<feOffset dy="18"/>
<feGaussianBlur stdDeviation="20"/>
<feComposite in2="hardAlpha" operator="out"/>
<feColorMatrix type="matrix" values="0 0 0 0 0.067 0 0 0 0 0.067 0 0 0 0 0.075 0 0 0 0.16 0"/>
<feBlend mode="normal" in2="BackgroundImageFix" result="effect1_dropShadow_1_2"/>
<feBlend mode="normal" in="SourceGraphic" in2="effect1_dropShadow_1_2" result="shape"/>
</filter>
<linearGradient id="paint0_linear_1_2" x1="0" y1="0" x2="712" y2="384" gradientUnits="userSpaceOnUse">
<stop stop-color="#4E2A84"/>
<stop offset="1" stop-color="#2C1452"/>
</linearGradient>
</defs>
</svg>
