<svg width="1600" height="900" viewBox="0 0 1600 900" fill="none" xmlns="http://www.w3.org/2000/svg">
<rect width="1600" height="900" fill="#F5F5F5"/>
<g clip-path="url(#clip0_1_2)">
<path d="M1600 0H0V900H1600V0Z" fill="#F5F5F5"/>
<mask id="mask0_1_2" style="mask-type:luminance" maskUnits="userSpaceOnUse" x="0" y="0" width="1600" height="900">
<path d="M1600 0H0V900H1600V0Z" fill="white"/>
</mask>
<g mask="url(#mask0_1_2)">
<path d="M1600 0H0V900H1600V0Z" fill="white"/>
<path opacity="0.04" d="M1600 0H0V900H1600V0Z" fill="#4E2A84"/>
<g opacity="0.16">
<path d="M160 0V900" stroke="#4E2A84"/>
<path d="M320 0V900" stroke="#4E2A84"/>
<path d="M480 0V900" stroke="#4E2A84"/>
<path d="M640 0V900" stroke="#4E2A84"/>
<path d="M800 0V900" stroke="#4E2A84"/>
<path d="M960 0V900" stroke="#4E2A84"/>
<path d="M1120 0V900" stroke="#4E2A84"/>
<path d="M1280 0V900" stroke="#4E2A84"/>
<path d="M1440 0V900" stroke="#4E2A84"/>
<path d="M0 150H1600" stroke="#4E2A84"/>
<path d="M0 300H1600" stroke="#4E2A84"/>
<path d="M0 450H1600" stroke="#4E2A84"/>
<path d="M0 600H1600" stroke="#4E2A84"/>
<path d="M0 750H1600" stroke="#4E2A84"/>
</g>
<path d="M0 0H412L202 900H0V0Z" fill="url(#paint0_linear_1_2)"/>
<path opacity="0.92" d="M1336 0H1600V900H1138L1336 0Z" fill="#8F7CB5"/>
<path d="M0 74L520 900H444L0 196V74Z" fill="#EDE8F5"/>
<path d="M1600 86L1132 900H1058L1600 0V86Z" fill="#EDE8F5"/>
<g filter="url(#filter0_d_1_2)">
<path d="M504 164H1058C1074.57 164 1088 177.431 1088 194V696C1088 712.569 1074.57 726 1058 726H504C487.431 726 474 712.569 474 696V194C474 177.431 487.431 164 504 164Z" fill="#111113"/>
<path d="M530 214H1032C1043.05 214 1052 222.954 1052 234V674C1052 685.046 1043.05 694 1032 694H530C518.954 694 510 685.046 510 674V234C510 222.954 518.954 214 530 214Z" fill="#F8F7FB"/>
<path d="M574 306H1002" stroke="#D8CFE8" stroke-width="4" stroke-linecap="round"/>
<path d="M574 396H1002" stroke="#D8CFE8" stroke-width="4" stroke-linecap="round"/>
<path d="M574 486H1002" stroke="#D8CFE8" stroke-width="4" stroke-linecap="round"/>
<path d="M574 576H1002" stroke="#D8CFE8" stroke-width="4" stroke-linecap="round"/>
<path d="M622 614C622 536 672 498 730 464C790 429 846 398 856 316" stroke="#4E2A84" stroke-width="10" stroke-linecap="round"/>
<path d="M742 614C742 546 782 510 832 474C886 435 932 392 942 316" stroke="#8F7CB5" stroke-width="8" stroke-linecap="round"/>
<path d="M862 614C862 552 898 522 938 492C978 462 1004 414 1004 352" stroke="#B6ACD1" stroke-width="8" stroke-linecap="round"/>
<path opacity="0.68" d="M574 614H1014" stroke="#111113" stroke-width="5" stroke-linecap="round"/>
<path opacity="0.68" d="M574 614V282" stroke="#111113" stroke-width="5" stroke-linecap="round"/>
<path d="M856 338C868.15 338 878 328.15 878 316C878 303.85 868.15 294 856 294C843.85 294 834 303.85 834 316C834 328.15 843.85 338 856 338Z" fill="#4E2A84"/>
<path d="M942 334C951.941 334 960 325.941 960 316C960 306.059 951.941 298 942 298C932.059 298 924 306.059 924 316C924 325.941 932.059 334 942 334Z" fill="#8F7CB5"/>
<path d="M1004 370C1013.94 370 1022 361.941 1022 352C1022 342.059 1013.94 334 1004 334C994.059 334 986 342.059 986 352C986 361.941 994.059 370 1004 370Z" fill="#B6ACD1"/>
<path d="M701 246H611C602.716 246 596 252.716 596 261C596 269.284 602.716 276 611 276H701C709.284 276 716 269.284 716 261C716 252.716 709.284 246 701 246Z" fill="#4E2A84"/>
<path d="M907 246H755C746.716 246 740 252.716 740 261C740 269.284 746.716 276 755 276H907C915.284 276 922 269.284 922 261C922 252.716 915.284 246 907 246Z" fill="#8F7CB5"/>
<path d="M1033 246H961C952.716 246 946 252.716 946 261C946 269.284 952.716 276 961 276H1033C1041.28 276 1048 269.284 1048 261C1048 252.716 1041.28 246 1033 246Z" fill="#B6ACD1"/>
</g>
<rect width="72" height="72" transform="translate(171 105)" fill="#4E2A84"/>
<path d="M219.761 124.455V155H214.183L200.894 135.775H200.671V155H194.212V124.455H199.88L213.065 143.665H213.333V124.455H219.761Z" fill="white"/>
</g>
</g>
<defs>
<filter id="filter0_d_1_2" x="434" y="142" width="694" height="642" filterUnits="userSpaceOnUse" color-interpolation-filters="sRGB">
<feFlood flood-opacity="0" result="BackgroundImageFix"/>
<feColorMatrix in="SourceAlpha" type="matrix" values="0 0 0 0 0 0 0 0 0 0 0 0 0 0 0 0 0 0 127 0" result="hardAlpha"/>
<feOffset dy="18"/>
<feGaussianBlur stdDeviation="20"/>
<feComposite in2="hardAlpha" operator="out"/>
<feColorMatrix type="matrix" values="0 0 0 0 0.067 0 0 0 0 0.067 0 0 0 0 0.075 0 0 0 0.16 0"/>
<feBlend mode="normal" in2="BackgroundImageFix" result="effect1_dropShadow_1_2"/>
<feBlend mode="normal" in="SourceGraphic" in2="effect1_dropShadow_1_2" result="shape"/>
</filter>
<linearGradient id="paint0_linear_1_2" x1="0" y1="0" x2="710" y2="384" gradientUnits="userSpaceOnUse">
<stop stop-color="#4E2A84"/>
<stop offset="1" stop-color="#2C1452"/>
</linearGradient>
<clipPath id="clip0_1_2">
<rect width="1600" height="900" fill="white"/>
</clipPath>
</defs>
</svg>
