<svg width="1600" height="900" viewBox="0 0 1600 900" fill="none" xmlns="http://www.w3.org/2000/svg">
<rect width="1600" height="900" fill="#F5F5F5"/>
<path d="M1600 0H0V900H1600V0Z" fill="#F5F5F5"/>
<mask id="mask0_1_2" style="mask-type:luminance" maskUnits="userSpaceOnUse" x="0" y="0" width="1600" height="900">
<path d="M1600 0H0V900H1600V0Z" fill="white"/>
</mask>
<g mask="url(#mask0_1_2)">
<path d="M1600 0H0V900H1600V0Z" fill="white"/>
<path opacity="0.04" d="M1600 0H0V900H1600V0Z" fill="#4E2A84"/>
<g opacity="0.16">
<path d="M160 0V900" stroke="#4E2A84"/>
<path d="M320 0V900" stroke="#4E2A84"/>
<path d="M480 0V900" stroke="#4E2A84"/>
<path d="M640 0V900" stroke="#4E2A84"/>
<path d="M800 0V900" stroke="#4E2A84"/>
<path d="M960 0V900" stroke="#4E2A84"/>
<path d="M1120 0V900" stroke="#4E2A84"/>
<path d="M1280 0V900" stroke="#4E2A84"/>
<path d="M1440 0V900" stroke="#4E2A84"/>
<path d="M0 150H1600" stroke="#4E2A84"/>
<path d="M0 300H1600" stroke="#4E2A84"/>
<path d="M0 450H1600" stroke="#4E2A84"/>
<path d="M0 600H1600" stroke="#4E2A84"/>
<path d="M0 750H1600" stroke="#4E2A84"/>
</g>
<path d="M0 0H420L208 900H0V0Z" fill="url(#paint0_linear_1_2)"/>
<path opacity="0.92" d="M1338 0H1600V900H1138L1338 0Z" fill="#8F7CB5"/>
<path d="M0 82L528 900H452L0 200V82Z" fill="#EDE8F5"/>
<path d="M1600 84L1138 900H1062L1600 0V84Z" fill="#EDE8F5"/>
<path d="M246 97H184C181.239 97 179 99.2386 179 102V164C179 166.761 181.239 169 184 169H246C248.761 169 251 166.761 251 164V102C251 99.2386 248.761 97 246 97Z" fill="#4E2A84"/>
<path d="M227.761 116.455V147H222.183L208.894 127.775H208.671V147H202.212V116.455H207.88L221.065 135.665H221.333V116.455H227.761Z" fill="white"/>
</g>
<g filter="url(#filter0_d_1_2)">
<path d="M516 161H1084C1100.57 161 1114 174.431 1114 191V709C1114 725.569 1100.57 739 1084 739H516C499.431 739 486 725.569 486 709V191C486 174.431 499.431 161 516 161Z" fill="#111113"/>
<path d="M542 215H1058C1069.05 215 1078 223.954 1078 235V685C1078 696.046 1069.05 705 1058 705H542C530.954 705 522 696.046 522 685V235C522 223.954 530.954 215 542 215Z" fill="#F8F7FB"/>
<path d="M712 311H590C574.536 311 562 323.536 562 339V531C562 546.464 574.536 559 590 559H712C727.464 559 740 546.464 740 531V339C740 323.536 727.464 311 712 311Z" fill="#EDE8F5"/>
<path d="M700 351H602C593.163 351 586 358.163 586 367V489C586 497.837 593.163 505 602 505H700C708.837 505 716 497.837 716 489V367C716 358.163 708.837 351 700 351Z" fill="white"/>
<path d="M651 543C657.627 543 663 537.627 663 531C663 524.373 657.627 519 651 519C644.373 519 639 524.373 639 531C639 537.627 644.373 543 651 543Z" fill="#8F7CB5"/>
<path d="M610 389H688" stroke="#4E2A84" stroke-width="10" stroke-linecap="round"/>
<path d="M610 425H676" stroke="#B6ACD1" stroke-width="10" stroke-linecap="round"/>
<path d="M610 461H698" stroke="#8F7CB5" stroke-width="10" stroke-linecap="round"/>
<path d="M950 297C1018 297 1054 349 1054 401C1054 493 950 525 950 621" stroke="#4E2A84" stroke-width="20" stroke-linecap="round"/>
<path d="M950 297C882 297 846 349 846 401C846 493 950 525 950 621" stroke="#B6ACD1" stroke-width="20" stroke-linecap="round"/>
<path d="M949 645C962.255 645 973 634.255 973 621C973 607.745 962.255 597 949 597C935.745 597 925 607.745 925 621C925 634.255 935.745 645 949 645Z" fill="#4E2A84"/>
<path d="M948 321C961.255 321 972 310.255 972 297C972 283.745 961.255 273 948 273C934.745 273 924 283.745 924 297C924 310.255 934.745 321 948 321Z" fill="#8F7CB5"/>
<path opacity="0.66" d="M750 435H808" stroke="#111113" stroke-width="6" stroke-linecap="round"/>
<path opacity="0.66" d="M798 409L830 435L798 461" stroke="#111113" stroke-width="6" stroke-linecap="round" stroke-linejoin="round"/>
<path opacity="0.65" d="M636 661H998" stroke="#111113" stroke-width="5" stroke-linecap="round"/>
<path d="M1026 283C1035.94 283 1044 274.941 1044 265C1044 255.059 1035.94 247 1026 247C1016.06 247 1008 255.059 1008 265C1008 274.941 1016.06 283 1026 283Z" fill="#B6ACD1"/>
<path d="M1046 595C1053.73 595 1060 588.732 1060 581C1060 573.268 1053.73 567 1046 567C1038.27 567 1032 573.268 1032 581C1032 588.732 1038.27 595 1046 595Z" fill="#8F7CB5"/>
</g>
<defs>
<filter id="filter0_d_1_2" x="446" y="139" width="708" height="658" filterUnits="userSpaceOnUse" color-interpolation-filters="sRGB">
<feFlood flood-opacity="0" result="BackgroundImageFix"/>
<feColorMatrix in="SourceAlpha" type="matrix" values="0 0 0 0 0 0 0 0 0 0 0 0 0 0 0 0 0 0 127 0" result="hardAlpha"/>
<feOffset dy="18"/>
<feGaussianBlur stdDeviation="20"/>
<feComposite in2="hardAlpha" operator="out"/>
<feColorMatrix type="matrix" values="0 0 0 0 0.067 0 0 0 0 0.067 0 0 0 0 0.075 0 0 0 0.16 0"/>
<feBlend mode="normal" in2="BackgroundImageFix" result="effect1_dropShadow_1_2"/>
<feBlend mode="normal" in="SourceGraphic" in2="effect1_dropShadow_1_2" result="shape"/>
</filter>
<linearGradient id="paint0_linear_1_2" x1="0" y1="0" x2="710" y2="384" gradientUnits="userSpaceOnUse">
<stop stop-color="#4E2A84"/>
<stop offset="1" stop-color="#2C1452"/>
</linearGradient>
</defs>
</svg>
