<svg width="1600" height="900" viewBox="0 0 1600 900" fill="none" xmlns="http://www.w3.org/2000/svg">
<rect width="1600" height="900" fill="#F5F5F5"/>
<path d="M1600 0H0V900H1600V0Z" fill="#F5F5F5"/>
<mask id="mask0_1_2" style="mask-type:luminance" maskUnits="userSpaceOnUse" x="0" y="0" width="1600" height="900">
<path d="M1600 0H0V900H1600V0Z" fill="white"/>
</mask>
<g mask="url(#mask0_1_2)">
<path d="M1600 0H0V900H1600V0Z" fill="white"/>
<path opacity="0.04" d="M1600 0H0V900H1600V0Z" fill="#4E2A84"/>
<g opacity="0.16">
<path d="M160 0V900" stroke="#4E2A84"/>
<path d="M320 0V900" stroke="#4E2A84"/>
<path d="M480 0V900" stroke="#4E2A84"/>
<path d="M640 0V900" stroke="#4E2A84"/>
<path d="M800 0V900" stroke="#4E2A84"/>
<path d="M960 0V900" stroke="#4E2A84"/>
<path d="M1120 0V900" stroke="#4E2A84"/>
<path d="M1280 0V900" stroke="#4E2A84"/>
<path d="M1440 0V900" stroke="#4E2A84"/>
<path d="M0 150H1600" stroke="#4E2A84"/>
<path d="M0 300H1600" stroke="#4E2A84"/>
<path d="M0 450H1600" stroke="#4E2A84"/>
<path d="M0 600H1600" stroke="#4E2A84"/>
<path d="M0 750H1600" stroke="#4E2A84"/>
</g>
<path d="M0 0H420L208 900H0V0Z" fill="url(#paint0_linear_1_2)"/>
<path opacity="0.92" d="M1338 0H1600V900H1138L1338 0Z" fill="#8F7CB5"/>
<path d="M0 82L528 900H452L0 200V82Z" fill="#EDE8F5"/>
<path d="M1600 84L1138 900H1062L1600 0V84Z" fill="#EDE8F5"/>
<path d="M246 97H184C181.239 97 179 99.2386 179 102V164C179 166.761 181.239 169 184 169H246C248.761 169 251 166.761 251 164V102C251 99.2386 248.761 97 246 97Z" fill="#4E2A84"/>
<path d="M227.761 116.455V147H222.183L208.894 127.775H208.671V147H202.212V116.455H207.88L221.065 135.665H221.333V116.455H227.761Z" fill="white"/>
</g>
<g filter="url(#filter0_d_1_2)">
<path d="M516 161H1084C1100.57 161 1114 174.431 1114 191V709C1114 725.569 1100.57 739 1084 739H516C499.431 739 486 725.569 486 709V191C486 174.431 499.431 161 516 161Z" fill="#111113"/>
<path d="M542 215H1058C1069.05 215 1078 223.954 1078 235V685C1078 696.046 1069.05 705 1058 705H542C530.954 705 522 696.046 522 685V235C522 223.954 530.954 215 542 215Z" fill="#F8F7FB"/>
<path d="M725 310H603C587.536 310 575 322.536 575 338V530C575 545.464 587.536 558 603 558H725C740.464 558 753 545.464 753 530V338C753 322.536 740.464 310 725 310Z" fill="#EDE8F5"/>
<path d="M713 350H615C606.163 350 599 357.163 599 366V488C599 496.837 606.163 504 615 504H713C721.837 504 729 496.837 729 488V366C729 357.163 721.837 350 713 350Z" fill="white"/>
<path d="M664 542C670.627 542 676 536.627 676 530C676 523.373 670.627 518 664 518C657.373 518 652 523.373 652 530C652 536.627 657.373 542 664 542Z" fill="#8F7CB5"/>
<path d="M623 388H701" stroke="#4E2A84" stroke-width="10" stroke-linecap="round"/>
<path d="M623 424H689" stroke="#B6ACD1" stroke-width="10" stroke-linecap="round"/>
<path d="M623 460H711" stroke="#8F7CB5" stroke-width="10" stroke-linecap="round"/>
<path d="M937 296C1005 296 1041 348 1041 400C1041 492 937 524 937 620" stroke="#4E2A84" stroke-width="20" stroke-linecap="round"/>
<path d="M937 296C869 296 833 348 833 400C833 492 937 524 937 620" stroke="#B6ACD1" stroke-width="20" stroke-linecap="round"/>
<path d="M936 644C949.255 644 960 633.255 960 620C960 606.745 949.255 596 936 596C922.745 596 912 606.745 912 620C912 633.255 922.745 644 936 644Z" fill="#4E2A84"/>
<path opacity="0.66" d="M766 434H796" stroke="#111113" stroke-width="6" stroke-linecap="round"/>
<path opacity="0.66" d="M788 408L820 434L788 460" stroke="#111113" stroke-width="6" stroke-linecap="round" stroke-linejoin="round"/>
<path opacity="0.65" d="M619 661H981" stroke="#111113" stroke-width="5" stroke-linecap="round"/>
</g>
<defs>
<filter id="filter0_d_1_2" x="446" y="139" width="708" height="658" filterUnits="userSpaceOnUse" color-interpolation-filters="sRGB">
<feFlood flood-opacity="0" result="BackgroundImageFix"/>
<feColorMatrix in="SourceAlpha" type="matrix" values="0 0 0 0 0 0 0 0 0 0 0 0 0 0 0 0 0 0 127 0" result="hardAlpha"/>
<feOffset dy="18"/>
<feGaussianBlur stdDeviation="20"/>
<feComposite in2="hardAlpha" operator="out"/>
<feColorMatrix type="matrix" values="0 0 0 0 0.067 0 0 0 0 0.067 0 0 0 0 0.075 0 0 0 0.16 0"/>
<feBlend mode="normal" in2="BackgroundImageFix" result="effect1_dropShadow_1_2"/>
<feBlend mode="normal" in="SourceGraphic" in2="effect1_dropShadow_1_2" result="shape"/>
</filter>
<linearGradient id="paint0_linear_1_2" x1="0" y1="0" x2="710" y2="384" gradientUnits="userSpaceOnUse">
<stop stop-color="#4E2A84"/>
<stop offset="1" stop-color="#2C1452"/>
</linearGradient>
</defs>
</svg>
