<svg width="1600" height="900" viewBox="0 0 1600 900" fill="none" xmlns="http://www.w3.org/2000/svg">
<rect width="1600" height="900" fill="#F5F5F5"/>
<path d="M1600 0H0V900H1600V0Z" fill="#F5F5F5"/>
<mask id="mask0_1_2" style="mask-type:luminance" maskUnits="userSpaceOnUse" x="0" y="0" width="1600" height="900">
<path d="M1600 0H0V900H1600V0Z" fill="white"/>
</mask>
<g mask="url(#mask0_1_2)">
<path d="M1600 0H0V900H1600V0Z" fill="white"/>
<path opacity="0.04" d="M1600 0H0V900H1600V0Z" fill="#4E2A84"/>
<g opacity="0.16">
<path d="M160 0V900" stroke="#4E2A84"/>
<path d="M320 0V900" stroke="#4E2A84"/>
<path d="M480 0V900" stroke="#4E2A84"/>
<path d="M640 0V900" stroke="#4E2A84"/>
<path d="M800 0V900" stroke="#4E2A84"/>
<path d="M960 0V900" stroke="#4E2A84"/>
<path d="M1120 0V900" stroke="#4E2A84"/>
<path d="M1280 0V900" stroke="#4E2A84"/>
<path d="M1440 0V900" stroke="#4E2A84"/>
<path d="M0 150H1600" stroke="#4E2A84"/>
<path d="M0 300H1600" stroke="#4E2A84"/>
<path d="M0 450H1600" stroke="#4E2A84"/>
<path d="M0 600H1600" stroke="#4E2A84"/>
<path d="M0 750H1600" stroke="#4E2A84"/>
</g>
<path d="M0 0H420L208 900H0V0Z" fill="url(#paint0_linear_1_2)"/>
<path opacity="0.92" d="M1338 0H1600V900H1138L1338 0Z" fill="#8F7CB5"/>
<path d="M0 82L528 900H452L0 200V82Z" fill="#EDE8F5"/>
<path d="M1600 84L1138 900H1062L1600 0V84Z" fill="#EDE8F5"/>
<path d="M246 97H184C181.239 97 179 99.2386 179 102V164C179 166.761 181.239 169 184 169H246C248.761 169 251 166.761 251 164V102C251 99.2386 248.761 97 246 97Z" fill="#4E2A84"/>
<path d="M227.761 116.455V147H222.183L208.894 127.775H208.671V147H202.212V116.455H207.88L221.065 135.665H221.333V116.455H227.761Z" fill="white"/>
</g>
<g filter="url(#filter0_d_1_2)">
<path d="M516 161H1084C1100.57 161 1114 174.431 1114 191V709C1114 725.569 1100.57 739 1084 739H516C499.431 739 486 725.569 486 709V191C486 174.431 499.431 161 516 161Z" fill="#111113"/>
<path d="M542 215H1058C1069.05 215 1078 223.954 1078 235V685C1078 696.046 1069.05 705 1058 705H542C530.954 705 522 696.046 522 685V235C522 223.954 530.954 215 542 215Z" fill="#F8F7FB"/>
<path d="M800 547C848.601 547 888 507.601 888 459C888 410.399 848.601 371 800 371C751.399 371 712 410.399 712 459C712 507.601 751.399 547 800 547Z" fill="#4E2A84"/>
<path d="M800 507C826.51 507 848 485.51 848 459C848 432.49 826.51 411 800 411C773.49 411 752 432.49 752 459C752 485.51 773.49 507 800 507Z" fill="#F8F7FB"/>
<path d="M800 417L813 443L842 447L821 467L826 497L800 483L774 497L779 467L758 447L787 443L800 417Z" fill="#4E2A84"/>
<path d="M666 413C709.078 413 744 378.078 744 335C744 291.922 709.078 257 666 257C622.922 257 588 291.922 588 335C588 378.078 622.922 413 666 413Z" fill="#EDE8F5"/>
<path d="M934 413C977.078 413 1012 378.078 1012 335C1012 291.922 977.078 257 934 257C890.922 257 856 291.922 856 335C856 378.078 890.922 413 934 413Z" fill="#EDE8F5"/>
<path d="M666 661C709.078 661 744 626.078 744 583C744 539.922 709.078 505 666 505C622.922 505 588 539.922 588 583C588 626.078 622.922 661 666 661Z" fill="#EDE8F5"/>
<path d="M934 661C977.078 661 1012 626.078 1012 583C1012 539.922 977.078 505 934 505C890.922 505 856 539.922 856 583C856 626.078 890.922 661 934 661Z" fill="#EDE8F5"/>
<path d="M628 335C646 299 686 299 704 335C686 371 646 371 628 335Z" fill="#4E2A84"/>
<path d="M666 347C672.627 347 678 341.627 678 335C678 328.373 672.627 323 666 323C659.373 323 654 328.373 654 335C654 341.627 659.373 347 666 347Z" fill="#F8F7FB"/>
<path d="M900 335H968" stroke="#8F7CB5" stroke-width="13" stroke-linecap="round"/>
<path d="M934 301V369" stroke="#8F7CB5" stroke-width="13" stroke-linecap="round"/>
<path d="M614 581H722" stroke="#4E2A84" stroke-width="13" stroke-linecap="round"/>
<path d="M964 547H904C897.373 547 892 552.373 892 559V607C892 613.627 897.373 619 904 619H964C970.627 619 976 613.627 976 607V559C976 552.373 970.627 547 964 547Z" fill="#B6ACD1"/>
<path d="M910 571H958" stroke="white" stroke-width="8" stroke-linecap="round"/>
<path d="M910 595H944" stroke="white" stroke-width="8" stroke-linecap="round"/>
<path opacity="0.65" d="M608 676H1008" stroke="#111113" stroke-width="5" stroke-linecap="round"/>
</g>
<defs>
<filter id="filter0_d_1_2" x="446" y="139" width="708" height="658" filterUnits="userSpaceOnUse" color-interpolation-filters="sRGB">
<feFlood flood-opacity="0" result="BackgroundImageFix"/>
<feColorMatrix in="SourceAlpha" type="matrix" values="0 0 0 0 0 0 0 0 0 0 0 0 0 0 0 0 0 0 127 0" result="hardAlpha"/>
<feOffset dy="18"/>
<feGaussianBlur stdDeviation="20"/>
<feComposite in2="hardAlpha" operator="out"/>
<feColorMatrix type="matrix" values="0 0 0 0 0.067 0 0 0 0 0.067 0 0 0 0 0.075 0 0 0 0.16 0"/>
<feBlend mode="normal" in2="BackgroundImageFix" result="effect1_dropShadow_1_2"/>
<feBlend mode="normal" in="SourceGraphic" in2="effect1_dropShadow_1_2" result="shape"/>
</filter>
<linearGradient id="paint0_linear_1_2" x1="0" y1="0" x2="710" y2="384" gradientUnits="userSpaceOnUse">
<stop stop-color="#4E2A84"/>
<stop offset="1" stop-color="#2C1452"/>
</linearGradient>
</defs>
</svg>
