<svg xmlns="http://www.w3.org/2000/svg" width="1600" height="600" viewBox="0 0 1600 600" fill="none">
  <defs>
    <linearGradient id="bg" x1="0" y1="0" x2="1" y2="1">
      <stop offset="0" stop-color="#4E2A84"/>
      <stop offset="1" stop-color="#2B1B4F"/>
    </linearGradient>
    <linearGradient id="glass" x1="0" y1="0" x2="1" y2="1">
      <stop offset="0" stop-color="#FFFFFF" stop-opacity="0.42"/>
      <stop offset="1" stop-color="#FFFFFF" stop-opacity="0.06"/>
    </linearGradient>
    <pattern id="grid" width="42" height="42" patternUnits="userSpaceOnUse">
      <path d="M42 0H0V42" stroke="#fff" stroke-opacity=".1" stroke-width="1"/>
    </pattern>
  </defs>

  <rect width="1600" height="600" fill="url(#bg)"/>
  <rect width="1600" height="600" fill="url(#grid)"/>

  <circle cx="152" cy="100" r="46" fill="#FFFFFF" fill-opacity=".28"/>
  <circle cx="340" cy="250" r="20" fill="#FFFFFF" fill-opacity=".32"/>
  <circle cx="1270" cy="118" r="34" fill="#FFFFFF" fill-opacity=".22"/>

  <g opacity=".92">
    <polygon points="540,330 715,180 890,330 715,480" fill="url(#glass)"/>
    <polygon points="735,310 910,160 1085,310 910,460" fill="#EEE8F8" fill-opacity=".26"/>
    <polygon points="930,290 1105,140 1280,290 1105,440" fill="#FFFFFF" fill-opacity=".16"/>
  </g>

  <path d="M86 418 C 260 295, 470 295, 650 418" stroke="#fff" stroke-opacity=".45" stroke-width="3" fill="none"/>
  <path d="M610 418 C 786 290, 1004 290, 1178 418" stroke="#fff" stroke-opacity=".38" stroke-width="3" fill="none"/>
  <path d="M1128 418 C 1248 330, 1402 330, 1512 418" stroke="#fff" stroke-opacity=".32" stroke-width="3" fill="none"/>
</svg>
